HIERARCHY
ROOT Hips
{
	OFFSET -0.001795 -0.223333 0.028219
	CHANNELS 6 Xposition Yposition Zposition Zrotation Yrotation Xrotation 
	JOINT LeftUpLeg
	{
		OFFSET 0.069520 -0.091406 -0.006815
		CHANNELS 3 Zrotation Yrotation Xrotation
		JOINT LeftLeg
		{
			OFFSET 0.034277 -0.375199 -0.004496
			CHANNELS 3 Zrotation Yrotation Xrotation
			JOINT LeftFoot
			{
				OFFSET -0.013596 -0.397961 -0.043693
				CHANNELS 3 Zrotation Yrotation Xrotation
				JOINT LeftToe
				{
					OFFSET 0.026358 -0.055791 0.119288
					CHANNELS 3 Zrotation Yrotation Xrotation
					End Site
					{
						OFFSET 0.000000 0.000000 0.000000
					}
				}
			}
		}
	}
	JOINT RightUpLeg
	{
		OFFSET -0.067670 -0.090522 -0.004320
		CHANNELS 3 Zrotation Yrotation Xrotation
		JOINT RightLeg
		{
			OFFSET -0.038290 -0.382569 -0.008850
			CHANNELS 3 Zrotation Yrotation Xrotation
			JOINT RightFoot
			{
				OFFSET 0.015774 -0.398415 -0.042312
				CHANNELS 3 Zrotation Yrotation Xrotation
				JOINT RightToe
				{
					OFFSET -0.025372 -0.048144 0.123348
					CHANNELS 3 Zrotation Yrotation Xrotation
					End Site
					{
						OFFSET 0.000000 0.000000 0.000000
					}
				}
			}
		}
	}
	JOINT Spine
	{
		OFFSET -0.002533 0.108963 -0.026696
		CHANNELS 3 Zrotation Yrotation Xrotation
		JOINT Spine1
		{
			OFFSET 0.005487 0.135180 0.001092
			CHANNELS 3 Zrotation Yrotation Xrotation
			JOINT Spine2
			{
				OFFSET 0.001457 0.052922 0.025425
				CHANNELS 3 Zrotation Yrotation Xrotation
				JOINT Neck
				{
					OFFSET -0.002778 0.213870 -0.042857
					CHANNELS 3 Zrotation Yrotation Xrotation
					JOINT Head
					{
						OFFSET 0.005152 0.064970 0.051349
						CHANNELS 3 Zrotation Yrotation Xrotation
						End Site
						{
							OFFSET 0.000000 0.000000 0.000000
						}
					}
				}
				JOINT LeftShoulder
				{
					OFFSET 0.078845 0.121749 -0.034090
					CHANNELS 3 Zrotation Yrotation Xrotation
					JOINT LeftArm
					{
						OFFSET 0.090977 0.030469 -0.008868
						CHANNELS 3 Zrotation Yrotation Xrotation
						JOINT LeftForeArm
						{
							OFFSET 0.259612 -0.012772 -0.027456
							CHANNELS 3 Zrotation Yrotation Xrotation
							JOINT LeftHand
							{
								OFFSET 0.249234 0.008986 -0.001171
								CHANNELS 3 Zrotation Yrotation Xrotation
								End Site
								{
									OFFSET 0.000000 0.000000 0.000000
								}
							}
						}
					}
				}
				JOINT RightShoulder
				{
					OFFSET -0.081759 0.118833 -0.038615
					CHANNELS 3 Zrotation Yrotation Xrotation
					JOINT RightArm
					{
						OFFSET -0.096012 0.032551 -0.009143
						CHANNELS 3 Zrotation Yrotation Xrotation
						JOINT RightForeArm
						{
							OFFSET -0.253742 -0.013329 -0.021401
							CHANNELS 3 Zrotation Yrotation Xrotation
							JOINT RightHand
							{
								OFFSET -0.255298 0.007772 -0.005559
								CHANNELS 3 Zrotation Yrotation Xrotation
								End Site
								{
									OFFSET 0.000000 0.000000 0.000000
								}
							}
						}
					}
				}
			}
		}
	}
}
MOTION
Frames: 11
Frame Time: 0.050000
-0.033998 0.962560 0.054623 1.354372 -13.315093 16.124256 1.676559 -1.030702 -16.679350 -5.093108 0.717221 1.205390 9.841098 19.388174 11.038353 0.000000 0.000000 0.000000 -7.384645 2.335861 -27.131358 5.508275 -0.287763 11.521727 -1.726807 -10.340149 12.663520 0.000000 0.000000 0.000000 0.527561 -0.426303 12.184616 11.241524 -2.118143 -22.108750 0.395111 -6.035498 25.616369 -2.626954 1.028570 -29.669708 0.000000 0.000000 0.000000 -29.088720 2.042806 2.131189 -38.978385 -7.075471 -5.535703 -78.414529 -69.246886 68.811408 0.000000 0.000000 0.000000 17.982890 5.772087 -1.826422 43.152742 -9.510580 -7.902661 125.486740 79.398154 114.086710 0.000000 0.000000 0.000000 
-0.039652 0.963547 0.057828 1.354036 -11.772436 16.137421 1.689760 -1.060121 -16.494618 -5.087116 0.684863 0.672140 9.265801 18.512792 11.622750 0.000000 0.000000 0.000000 -7.130723 2.202615 -26.390311 5.671911 -0.371990 10.554238 -2.484099 -11.717485 13.310827 0.000000 0.000000 0.000000 0.613024 -0.434367 10.939337 11.065356 -2.097933 -22.019324 -0.408792 -6.404698 25.212393 -2.368275 0.981457 -29.682598 0.000000 0.000000 0.000000 -29.280113 2.443165 1.630994 -38.652613 -6.188783 -5.683684 -79.159069 -69.356648 69.357372 0.000000 0.000000 0.000000 17.718481 4.988216 -2.020382 42.642554 -11.648467 -8.520562 123.386206 74.600203 107.100165 0.000000 0.000000 0.000000 
-0.045176 0.963818 0.057908 1.578422 -10.112045 16.177044 1.910453 -1.111846 -17.305296 -5.438343 0.733269 1.663461 8.669595 17.730830 10.681234 0.000000 0.000000 0.000000 -6.977656 2.079252 -25.970838 5.887929 -0.456103 10.157173 -3.110387 -12.494838 12.872011 0.000000 0.000000 0.000000 0.166674 -0.365457 10.351574 10.539109 -1.951620 -22.219730 -0.460205 -6.373058 25.466928 -2.429036 1.168984 -30.031007 0.000000 0.000000 0.000000 -29.221790 2.626774 1.080282 -38.828827 -6.287791 -5.580284 -79.132808 -70.177886 69.853020 0.000000 0.000000 0.000000 17.094838 4.488479 -1.838688 43.268043 -11.923691 -8.901601 122.361007 72.410629 104.169131 0.000000 0.000000 0.000000 
-0.050367 0.962599 0.054068 1.454778 -8.465664 17.057839 2.999641 -1.096636 -19.309712 -6.460251 0.890684 2.777379 8.293795 17.255412 10.299146 0.000000 0.000000 0.000000 -6.305164 2.200282 -27.379162 6.242091 -0.559162 10.558212 -4.753810 -15.533895 14.180349 0.000000 0.000000 0.000000 -0.527402 -0.276063 10.513032 10.692954 -1.892426 -22.784166 -0.895698 -5.470859 25.574809 -1.846945 1.145012 -29.598516 0.000000 0.000000 0.000000 -28.761134 2.299488 0.511284 -39.415208 -5.970850 -5.503275 -75.322792 -71.109251 66.606306 0.000000 0.000000 0.000000 18.127957 5.287891 -1.050417 42.249567 -10.765457 -8.324848 122.683007 72.400186 105.724706 0.000000 0.000000 0.000000 
-0.054229 0.959941 0.045857 1.511407 -7.179710 18.399646 4.133328 -1.099471 -23.389101 -7.690730 1.177683 5.658058 7.998630 16.900623 9.200473 0.000000 0.000000 0.000000 -6.401508 2.317268 -30.038269 6.842711 -0.716229 12.065675 -5.613175 -16.901764 14.004296 0.000000 0.000000 0.000000 -1.354447 -0.175008 12.044867 10.165210 -1.684647 -23.305119 -0.677093 -3.787364 25.903051 -1.435090 1.384572 -31.379899 0.000000 0.000000 0.000000 -28.121189 1.075315 0.373374 -40.239671 -7.789509 -4.789755 -63.449939 -72.490196 56.569364 0.000000 0.000000 0.000000 18.221226 7.300311 0.751042 42.905755 -6.387238 -7.201955 127.144658 75.533256 115.684801 0.000000 0.000000 0.000000 
-0.055760 0.956343 0.034350 1.450105 -6.848153 20.564368 4.981309 -1.046207 -27.821148 -8.331137 1.361708 7.296305 7.749411 16.551544 9.058856 0.000000 0.000000 0.000000 -6.621950 2.660796 -35.037419 7.759584 -0.942824 14.185863 -7.394917 -20.222148 15.621186 0.000000 0.000000 0.000000 -1.783960 -0.116628 14.425791 9.335679 -1.384301 -23.999645 0.000676 -1.130370 25.461609 -1.885068 1.985616 -30.032143 0.000000 0.000000 0.000000 -28.174975 -0.326094 0.161955 -40.776117 -9.197274 -4.057534 -47.879993 -72.680278 42.717346 0.000000 0.000000 0.000000 17.960240 9.158370 2.622030 42.041318 0.151292 -5.130901 139.181983 78.993688 134.565385 0.000000 0.000000 0.000000 
-0.054039 0.952516 0.019951 1.766257 -7.056019 23.067537 5.540112 -0.936193 -33.522981 -9.165926 1.652096 9.441926 7.619957 16.401915 9.756834 0.000000 0.000000 0.000000 -7.866429 2.780840 -40.055477 8.662425 -1.173223 15.470918 -7.556645 -20.738693 16.671304 0.000000 0.000000 0.000000 -1.990534 -0.067373 16.905539 7.884731 -1.059707 -23.972463 0.040033 1.692483 25.144168 -1.132000 1.990116 -29.098518 0.000000 0.000000 0.000000 -29.433403 -2.983808 0.812120 -39.866145 -12.826563 -2.638072 -25.371087 -70.090045 23.151779 0.000000 0.000000 0.000000 16.040977 13.415345 5.716041 40.760600 7.853801 -2.822701 -173.148830 83.490159 -167.014409 0.000000 0.000000 0.000000 
-0.049268 0.947192 0.003609 1.816253 -7.085304 25.734821 5.726533 -0.857962 -38.927904 -9.453311 1.811537 11.127106 7.811603 16.859052 11.639999 0.000000 0.000000 0.000000 -9.233300 2.804833 -45.932493 9.711478 -1.506244 17.469530 -8.628231 -22.731336 18.244768 0.000000 0.000000 0.000000 -1.547643 -0.181837 19.723965 5.797112 -0.603747 -24.015791 0.667031 4.012813 24.427437 -1.601389 2.476999 -26.725910 0.000000 0.000000 0.000000 -30.623940 -6.828446 2.443511 -37.909098 -15.339019 -1.569867 -8.907405 -67.342700 10.247667 0.000000 0.000000 0.000000 13.153551 16.719335 7.852797 37.189410 16.213268 -0.478872 -106.072604 79.530314 -89.019029 0.000000 0.000000 0.000000 
-0.043175 0.939162 -0.012099 2.052862 -6.861122 28.603617 6.260117 -0.651702 -44.337724 -10.593117 2.121342 12.162309 7.946508 17.262094 12.576529 0.000000 0.000000 0.000000 -10.980002 2.461797 -51.464094 10.792040 -1.867904 18.299882 -8.658793 -22.890516 19.811269 0.000000 0.000000 0.000000 -1.184720 -0.319885 23.525837 4.393995 -0.257003 -24.704842 0.682474 5.094345 24.720838 -1.145158 2.461851 -28.178509 0.000000 0.000000 0.000000 -28.717503 -9.448740 3.765780 -38.005446 -18.801548 -0.467690 3.260727 -65.490011 2.020366 0.000000 0.000000 0.000000 8.090996 20.036771 9.104146 33.916039 22.606104 1.038078 -90.067987 69.398337 -62.116886 0.000000 0.000000 0.000000 
-0.037649 0.928340 -0.023997 1.938271 -6.938560 31.800679 6.694506 -0.305030 -50.528260 -10.950770 2.366932 14.355842 7.813427 17.210748 13.054514 0.000000 0.000000 0.000000 -12.539877 2.101891 -57.365401 12.421693 -2.429911 19.680794 -9.701093 -24.698314 21.446865 0.000000 0.000000 0.000000 -1.014926 -0.400610 27.184938 2.976521 0.105623 -26.066757 1.327063 5.895323 24.956043 -1.634224 2.785798 -28.164515 0.000000 0.000000 0.000000 -27.630289 -12.000831 5.201056 -36.305454 -20.398380 -0.044550 12.247296 -64.975287 -3.771744 0.000000 0.000000 0.000000 5.677918 21.672220 9.712173 29.945101 25.657571 1.298682 -87.451386 62.524689 -52.598226 0.000000 0.000000 0.000000 
-0.032738 0.916861 -0.030751 1.802283 -7.129305 34.713379 7.872027 0.465597 -55.426621 -12.248764 2.833966 15.838683 8.125177 17.840540 13.430160 0.000000 0.000000 0.000000 -14.142914 1.553275 -62.193929 13.668564 -2.871518 20.281010 -10.634063 -26.275002 22.524912 0.000000 0.000000 0.000000 -1.057633 -0.380238 30.991257 2.290832 0.272601 -26.839585 2.046484 5.441534 25.209901 -2.031421 2.923681 -30.080151 0.000000 0.000000 0.000000 -25.694844 -13.121948 6.170882 -36.683124 -21.953904 0.333432 17.262368 -64.939129 -6.679775 0.000000 0.000000 0.000000 2.444899 22.474165 9.492943 29.779367 27.817622 1.834661 -91.395072 59.661883 -52.767019 0.000000 0.000000 0.000000 
